<?xml version="1.0" standalone="no"?>
<!DOCTYPE svg PUBLIC "-//W3C//DTD SVG 20010904//EN"
 "http://www.w3.org/TR/2001/REC-SVG-20010904/DTD/svg10.dtd">
<svg version="1.0" xmlns="http://www.w3.org/2000/svg"
 width="670.000000pt" height="670.000000pt" viewBox="0 0 670.000000 670.000000"
 preserveAspectRatio="xMidYMid meet">
<metadata>
Created by potrace 1.14, written by Peter Selinger 2001-2017
</metadata>
<g transform="translate(0.000000,670.000000) scale(0.100000,-0.100000)"
fill="#000000" stroke="none">
<path d="M0 3350 l0 -3350 2650 0 2650 0 -1 33 c0 27 -2 29 -9 12 -8 -18 -9
-18 -9 -2 -1 10 9 22 22 27 18 7 18 9 4 9 -10 1 -16 5 -13 10 4 5 0 12 -6 14
-7 3 -2 6 12 7 22 0 23 2 9 13 -12 9 -13 16 -6 29 8 12 6 23 -8 44 -15 24 -16
27 -2 15 15 -12 17 -11 17 7 0 12 -5 24 -10 27 -6 4 -8 16 -4 27 4 13 2 18 -4
14 -12 -7 -10 13 2 33 5 7 5 16 0 20 -5 3 -10 23 -10 45 -1 24 2 33 7 25 7
-11 9 -11 9 1 0 9 -5 21 -11 27 -8 8 -7 13 2 18 7 5 10 4 7 -1 -3 -5 0 -15 8
-22 17 -16 18 -8 2 21 -15 28 -17 87 -4 110 9 14 7 21 -7 32 -15 10 -16 15 -5
22 9 5 13 32 13 85 0 42 -3 74 -7 72 -4 -3 -6 4 -6 13 0 10 -2 25 -6 34 -4 10
-1 23 8 32 14 13 14 16 1 21 -19 7 -19 23 0 43 12 12 13 18 4 29 -6 8 -8 14
-4 14 4 0 2 7 -5 15 -10 12 -9 15 6 16 18 0 18 1 -1 9 -11 5 -15 9 -9 9 18 1
25 41 8 41 -21 0 -17 21 6 27 11 3 20 9 20 14 0 5 -6 6 -14 3 -10 -4 -13 5
-10 40 2 29 -1 46 -8 46 -6 0 -5 6 3 17 11 13 11 17 2 20 -9 3 -10 10 -3 24 6
11 7 19 2 19 -6 0 -12 9 -15 21 -4 16 -2 19 10 15 13 -6 14 -4 3 9 -11 13 -11
16 0 13 8 -2 15 4 16 12 0 8 2 20 4 25 6 23 5 41 -4 53 -7 9 -12 8 -23 -5 -11
-14 -10 -9 2 21 8 22 13 47 10 57 -3 9 1 24 10 32 11 12 12 16 2 20 -9 3 -8 8
3 22 10 13 11 16 2 11 -11 -6 -12 0 -8 27 7 43 -1 67 -21 67 -13 0 -13 3 -3
15 7 8 15 13 19 11 4 -3 7 4 7 14 0 10 -4 17 -7 14 -4 -2 -11 1 -15 7 -3 6 0
15 7 20 10 6 10 9 2 9 -7 0 -10 7 -7 15 4 8 10 13 15 10 4 -3 6 4 4 15 -2 11
2 20 8 20 7 1 2 6 -9 13 -18 10 -19 14 -9 24 7 6 15 11 17 10 2 -1 -3 4 -11
10 -8 7 -10 13 -4 13 6 0 13 9 16 21 4 16 3 18 -9 8 -16 -13 -16 -13 -18 21 0
14 -5 31 -10 39 -6 9 -5 12 2 7 5 -3 12 -3 15 1 2 5 2 2 1 -5 -2 -6 3 -12 10
-12 9 0 12 7 9 20 -3 11 -9 20 -14 20 -5 0 -9 9 -9 20 0 11 5 20 10 20 6 0 10
5 10 11 0 5 -4 8 -9 5 -5 -3 -12 1 -15 10 -3 8 -2 12 4 9 6 -3 10 3 10 14 0
11 -5 23 -12 27 -7 5 -8 3 -3 -6 6 -9 4 -11 -5 -5 -10 6 -7 13 11 27 13 11 19
17 12 14 -6 -4 -14 -2 -18 4 -3 5 -1 10 5 10 6 0 9 4 5 9 -3 6 3 14 12 20 10
6 12 11 6 11 -7 0 -13 5 -13 11 0 5 4 7 10 4 6 -3 7 1 4 10 -4 10 -14 15 -25
12 -11 -3 -17 -2 -14 3 2 4 -26 10 -63 13 -227 22 -473 159 -623 347 -80 100
-154 248 -186 368 -22 82 -25 119 -25 242 0 123 4 160 25 241 84 321 325 569
654 672 45 15 111 29 147 33 38 4 66 12 66 18 0 6 5 4 10 -4 14 -21 13 5 -1
31 -7 15 -7 24 1 35 7 7 15 12 19 10 4 -3 7 4 7 14 0 10 -4 17 -7 14 -4 -2
-11 1 -15 7 -3 6 0 15 7 20 10 6 10 9 2 9 -7 0 -10 7 -7 15 4 8 10 13 15 10 4
-3 6 4 4 15 -2 11 2 20 8 20 7 1 2 6 -9 13 -18 10 -19 14 -9 24 7 6 15 11 17
10 2 -1 -3 4 -11 11 -8 6 -10 12 -4 12 6 0 13 9 16 21 4 16 3 18 -9 8 -16 -13
-16 -13 -18 21 0 14 -5 31 -10 39 -6 9 -5 12 2 7 5 -3 12 -3 15 1 2 5 2 2 1
-4 -2 -7 3 -13 10 -13 9 0 12 7 9 20 -3 11 -9 20 -14 20 -5 0 -9 9 -9 20 0 11
5 20 10 20 6 0 10 5 10 11 0 5 -4 8 -9 5 -5 -3 -12 1 -15 10 -3 8 -2 12 4 9 6
-3 10 3 10 14 0 11 -5 23 -12 27 -7 5 -8 3 -3 -6 6 -9 4 -11 -5 -5 -10 6 -7
13 11 27 13 11 19 17 12 14 -6 -4 -14 -2 -18 4 -3 5 -1 10 5 10 6 0 9 4 5 9
-3 6 3 14 12 20 10 6 13 11 6 11 -7 0 -11 12 -10 29 1 16 5 27 9 25 4 -3 5 2
2 10 -3 9 -10 13 -15 10 -14 -8 -29 5 -23 21 4 8 9 13 13 10 5 -2 7 24 6 58
-1 34 4 65 9 69 7 5 7 8 -2 8 -10 0 -10 5 -2 20 7 14 7 20 0 20 -5 0 -10 5
-10 11 0 5 4 8 8 5 9 -6 7 108 -3 123 -3 6 2 11 12 12 16 0 16 1 -2 9 -11 5
-15 9 -10 9 6 1 3 6 -5 11 -12 8 -10 10 10 10 22 1 23 2 9 13 -12 9 -13 16 -6
29 8 12 6 23 -8 44 -15 24 -16 27 -2 15 15 -12 17 -11 17 7 0 12 -5 24 -10 27
-6 4 -8 16 -4 27 4 13 2 18 -4 14 -12 -7 -10 13 2 33 5 7 5 16 0 20 -5 3 -10
23 -10 45 -1 24 2 33 7 25 7 -11 9 -11 9 2 0 8 -5 20 -11 26 -8 8 -7 13 2 18
7 5 10 4 7 -1 -3 -5 0 -15 8 -22 17 -16 18 -8 2 21 -15 28 -17 87 -4 110 9 14
7 21 -7 32 -15 10 -16 15 -5 22 9 5 13 32 13 85 0 42 -3 74 -7 72 -4 -3 -6 4
-6 13 0 10 -2 25 -6 34 -4 10 -1 23 8 32 14 13 14 16 1 21 -19 7 -19 23 0 43
12 12 13 18 4 29 -6 8 -8 14 -4 14 4 0 2 7 -5 15 -10 12 -9 15 6 16 18 0 18 1
-1 9 -11 5 -15 9 -9 9 18 1 25 41 8 41 -21 0 -17 21 6 27 11 3 20 9 20 14 0 5
-6 6 -14 3 -10 -4 -13 5 -10 40 2 29 -1 46 -8 46 -6 0 -5 6 3 17 11 13 11 17
2 20 -9 3 -10 10 -3 24 6 11 7 19 2 19 -6 0 -12 9 -15 21 -4 16 -2 19 10 15
13 -6 14 -4 3 9 -11 13 -11 16 0 13 8 -2 15 4 16 12 0 8 2 20 4 25 6 23 5 41
-4 53 -7 9 -12 8 -23 -5 -11 -14 -10 -9 2 21 8 22 13 47 10 57 -3 9 1 24 10
32 11 12 12 16 2 20 -9 3 -8 8 3 22 9 11 10 16 3 11 -7 -4 -13 -2 -13 3 0 8
-792 11 -2650 11 l-2650 0 0 -3350z m5287 3295 c0 -8 -4 -15 -9 -15 -10 0 -11
14 -1 23 9 10 10 9 10 -8z m1 -180 c-3 -3 -9 2 -12 12 -6 14 -5 15 5 6 7 -7
10 -15 7 -18z m2 -655 c0 -5 -5 -10 -11 -10 -5 0 -7 5 -4 10 3 6 8 10 11 10 2
0 4 -4 4 -10z m2 -122 c-7 -7 -12 -8 -12 -2 0 14 12 26 19 19 2 -3 -1 -11 -7
-17z m3 -397 c3 -5 2 -12 -3 -15 -5 -3 -9 1 -9 9 0 17 3 19 12 6z m-7 -185
c-1 -14 -5 -23 -9 -20 -7 4 0 44 7 44 2 0 3 -11 2 -24z m-3477 -962 c109 -19
227 -54 318 -95 36 -16 67 -31 69 -33 3 -3 -170 -346 -183 -364 -2 -2 -31 15
-64 37 -86 55 -151 76 -241 76 -84 0 -141 -23 -179 -71 -23 -30 -29 -110 -10
-145 19 -37 102 -79 234 -120 204 -65 293 -110 379 -195 96 -96 140 -212 140
-369 0 -118 -14 -184 -60 -282 -67 -141 -182 -234 -364 -295 -93 -31 -99 -32
-275 -32 -163 0 -189 3 -280 27 -101 27 -275 107 -329 150 l-29 24 98 184 c53
101 99 186 101 188 2 2 31 -18 66 -44 129 -97 258 -142 380 -132 78 7 113 23
156 71 50 57 54 135 11 190 -32 41 -92 70 -269 131 -91 32 -192 71 -225 89
-188 99 -273 296 -233 541 59 357 368 541 789 469z m1598 -44 c181 -30 342
-118 491 -269 116 -118 193 -254 236 -416 25 -97 26 -324 1 -413 -49 -181
-120 -304 -247 -433 -99 -101 -182 -156 -307 -209 -131 -55 -184 -60 -618 -60
l-395 0 0 905 0 905 388 0 c218 0 415 -5 451 -10z m1878 -2575 c0 -8 -4 -15
-9 -15 -10 0 -11 14 -1 23 9 10 10 9 10 -8z m1 -180 c-3 -3 -9 2 -12 12 -6 14
-5 15 5 6 7 -7 10 -15 7 -18z m2 -655 c0 -5 -5 -10 -11 -10 -5 0 -7 5 -4 10 3
6 8 10 11 10 2 0 4 -4 4 -10z m2 -122 c-7 -7 -12 -8 -12 -2 0 14 12 26 19 19
2 -3 -1 -11 -7 -17z m3 -397 c3 -5 2 -12 -3 -15 -5 -3 -9 1 -9 9 0 17 3 19 12
6z"/>
<path d="M3040 3205 l0 -508 118 6 c64 3 138 12 163 20 231 75 350 257 336
516 -11 217 -117 366 -313 438 -54 20 -95 26 -186 31 l-118 5 0 -508z"/>
<path d="M5440 6658 c1 -123 67 -330 150 -468 160 -265 392 -440 688 -516 104
-27 293 -42 375 -30 l47 7 0 525 0 524 -630 0 -630 0 0 -42z"/>
<path d="M5305 5509 c-4 -6 -5 -12 -2 -15 2 -3 7 2 10 11 7 17 1 20 -8 4z"/>
<path d="M5315 4789 c-4 -6 -5 -12 -2 -15 2 -3 7 2 10 11 7 17 1 20 -8 4z"/>
<path d="M5293 4196 c7 -14 13 -23 15 -21 7 6 -9 45 -18 45 -4 0 -3 -11 3 -24z"/>
<path d="M5205 3675 c-139 -41 -253 -154 -306 -301 -31 -84 -31 -254 0 -338
29 -80 73 -147 133 -201 55 -49 161 -106 206 -110 16 -1 34 -5 40 -9 14 -8 32
1 32 16 0 6 -7 5 -17 -3 -16 -13 -17 -12 -4 3 7 10 11 24 8 32 -3 8 -1 17 6
19 9 3 9 7 -1 19 -7 9 -9 24 -5 33 4 12 3 16 -4 12 -13 -8 -12 11 1 32 5 7 5
16 0 20 -5 3 -10 23 -10 45 -1 24 2 33 7 25 7 -11 9 -11 9 2 0 8 -5 20 -11 26
-8 8 -7 13 2 18 7 5 10 4 7 -1 -3 -5 0 -15 8 -22 17 -16 18 -8 2 21 -15 28
-17 87 -4 110 9 14 7 21 -7 32 -15 10 -16 15 -5 22 9 5 13 32 13 85 0 42 -3
74 -7 72 -4 -3 -6 4 -6 13 0 10 -2 25 -6 34 -4 10 -1 23 9 33 9 9 11 16 5 16
-19 0 -23 29 -6 46 13 12 14 19 5 30 -6 8 -8 14 -4 14 4 0 2 7 -5 15 -10 12
-9 15 6 16 18 0 18 1 -1 9 -11 5 -15 9 -9 9 18 1 25 41 8 41 -21 0 -17 21 6
27 11 3 20 9 20 14 0 5 -7 6 -15 3 -10 -4 -13 0 -11 13 5 22 -31 26 -89 8z
m85 -425 c0 -5 -5 -10 -11 -10 -5 0 -7 5 -4 10 3 6 8 10 11 10 2 0 4 -4 4 -10z
m2 -122 c-7 -7 -12 -8 -12 -2 0 14 12 26 19 19 2 -3 -1 -11 -7 -17z"/>
<path d="M5305 2949 c-4 -6 -5 -12 -2 -15 2 -3 7 2 10 11 7 17 1 20 -8 4z"/>
<path d="M5305 389 c-4 -6 -5 -12 -2 -15 2 -3 7 2 10 11 7 17 1 20 -8 4z"/>
</g>
</svg>
